<?xml version="1.0" standalone="no"?>
<!DOCTYPE svg PUBLIC "-//W3C//DTD SVG 20010904//EN"
 "http://www.w3.org/TR/2001/REC-SVG-20010904/DTD/svg10.dtd">
<svg version="1.0" xmlns="http://www.w3.org/2000/svg"
 width="512.000000pt" height="512.000000pt" viewBox="0 0 512.000000 512.000000"
 preserveAspectRatio="xMidYMid meet">
<metadata>
Created by potrace 1.14, written by Peter Selinger 2001-2017
</metadata>
<g transform="translate(0.000000,512.000000) scale(0.100000,-0.100000)"
fill="#000000" stroke="none">
<path d="M2537 4840 c-79 -259 -1389 -4609 -1393 -4627 l-6 -23 1427 0 1427 0
-6 23 c-13 51 -1407 4674 -1414 4692 -7 16 -14 3 -35 -65z m76 -1640 c26 -55
55 -104 65 -108 9 -5 42 -13 72 -17 142 -19 145 -20 148 -39 3 -13 -21 -44
-74 -97 -61 -61 -77 -84 -76 -106 1 -32 18 -145 28 -185 6 -25 4 -28 -20 -28
-15 0 -65 20 -113 45 -47 25 -91 45 -97 45 -7 0 -52 -20 -101 -45 -49 -25 -98
-45 -110 -43 -23 3 -23 26 1 145 8 40 14 75 14 79 0 4 -39 46 -86 95 -99 100
-100 112 -11 123 180 23 167 14 228 142 22 44 42 84 46 87 21 22 41 0 86 -93z
m-424 -1337 c11 -21 29 -59 41 -85 33 -71 53 -84 150 -97 161 -23 162 -25 50
-134 -90 -86 -93 -95 -65 -200 8 -32 15 -74 15 -92 0 -43 -22 -46 -78 -12 -20
12 -63 35 -94 52 l-57 30 -85 -44 c-47 -23 -88 -47 -92 -52 -3 -5 -17 -9 -31
-9 -24 0 -25 1 -19 58 3 31 9 89 12 127 l6 70 -86 84 c-47 46 -86 85 -86 86 0
9 68 26 145 36 51 6 97 18 107 26 10 9 34 50 54 92 20 42 41 82 47 89 18 23
46 13 66 -25z m941 -812 c51 -103 69 -121 114 -121 40 0 145 -20 173 -33 20
-9 17 -14 -64 -92 l-85 -81 6 -70 c3 -38 8 -95 12 -126 5 -53 4 -58 -13 -58
-11 0 -59 20 -106 45 -48 25 -96 45 -107 45 -18 0 -144 -62 -165 -81 -5 -5
-22 -9 -37 -9 -25 0 -28 4 -28 33 0 17 7 57 15 87 28 104 25 115 -66 206 -51
52 -80 88 -76 97 5 13 22 17 163 36 29 4 59 13 68 20 9 8 37 56 63 108 60 122
69 122 133 -6z"/>
</g>
</svg>
