<?xml version="1.0" encoding="UTF-8"?>
<!--Generator: Apple Native CoreSVG 232.5-->
<!DOCTYPE svg
PUBLIC "-//W3C//DTD SVG 1.1//EN"
       "http://www.w3.org/Graphics/SVG/1.1/DTD/svg11.dtd">
<svg version="1.1" xmlns="http://www.w3.org/2000/svg" xmlns:xlink="http://www.w3.org/1999/xlink" width="112.922" height="94.8281">
 <g>
  <rect height="94.8281" opacity="0" width="112.922" x="0" y="0"/>
  <path d="M112.922 31.5938C112.922 50.8594 85.6875 52.3594 85.6875 59.8594C85.6875 65.2969 93.5625 67.3594 93.5625 76.5938C93.5625 86.9062 80.3906 93.8906 60.6562 93.8906C24.5156 93.8906 0 75.3281 0 47.7656C0 19.125 25.8281 0 64.125 0C93.2812 0 112.922 12.5625 112.922 31.5938ZM47.1562 63.5156C47.1562 70.4062 52.7812 75.9844 59.625 75.9844C66.5156 75.9844 72.1406 70.4062 72.1406 63.5156C72.1406 56.6719 66.5156 51.0469 59.625 51.0469C52.7812 51.0469 47.1562 56.6719 47.1562 63.5156ZM14.3438 45.6094C14.3438 49.9219 17.9062 53.4844 22.1719 53.4844C26.4844 53.4844 29.9531 49.9219 29.9531 45.6094C29.9531 41.2969 26.4844 37.875 22.1719 37.875C18.0469 37.875 14.3438 41.4844 14.3438 45.6094ZM30.2344 27.0469C30.2344 32.5781 34.6406 36.8906 40.1719 36.8906C45.5625 36.8906 49.9688 32.5781 49.9688 27.0469C49.9688 21.6562 45.5156 17.3438 40.1719 17.3438C34.6406 17.3438 30.2344 21.6562 30.2344 27.0469ZM80.7656 27.2344C80.7656 30.7969 83.6719 33.6094 87.2344 33.6094C90.75 33.6094 93.5625 30.7969 93.5625 27.2344C93.5625 23.7188 90.75 20.8125 87.2344 20.8125C83.6719 20.8125 80.7656 23.7188 80.7656 27.2344ZM57.1875 21.6094C57.1875 25.9688 60.8438 29.4844 65.1562 29.4844C69.5625 29.4844 73.0312 25.9688 73.0312 21.6094C73.0312 17.25 69.5625 13.7344 65.1562 13.7344C60.8438 13.7344 57.1875 17.25 57.1875 21.6094Z" fill="#ffffff" fill-opacity="0.85"/>
 </g>
</svg>
