<?xml version="1.0" encoding="UTF-8"?>
<!--Generator: Apple Native CoreSVG 232.5-->
<!DOCTYPE svg
PUBLIC "-//W3C//DTD SVG 1.1//EN"
       "http://www.w3.org/Graphics/SVG/1.1/DTD/svg11.dtd">
<svg version="1.1" xmlns="http://www.w3.org/2000/svg" xmlns:xlink="http://www.w3.org/1999/xlink" width="117.328" height="118.689">
 <g>
  <rect height="118.689" opacity="0" width="117.328" x="0" y="0"/>
  <path d="M114.375 41.6491C115.969 41.6491 117.328 40.3366 117.328 38.7429L117.328 31.7116C117.328 18.3054 108.375 9.2585 94.9219 9.2585L93.9375 9.2585L93.9375 3.35225C93.9375-0.116497 91.3125-0.913372 88.6875 1.05538L76.875 9.72725C74.9062 11.1804 74.8594 12.8679 76.875 14.321L88.6875 22.946C91.3125 24.8679 93.9375 24.071 93.9375 20.696L93.9375 14.696L94.875 14.696C105.047 14.696 111.469 21.7273 111.469 31.7116L111.469 38.7429C111.469 40.3366 112.781 41.6491 114.375 41.6491Z" fill="#ffffff" fill-opacity="0.85"/>
  <path d="M35.4375 102.493L81.8906 102.493C89.9062 102.493 93.9375 98.696 93.9375 90.4929L93.9375 44.1335C93.9375 35.9304 89.9062 32.0866 81.8906 32.0866L35.4375 32.0866C27.4219 32.0866 23.3906 35.9304 23.3906 44.1335L23.3906 90.4929C23.3906 98.696 27.4219 102.493 35.4375 102.493ZM35.5781 94.946C32.3906 94.946 30.9375 93.6335 30.9375 90.3523L30.9375 44.2273C30.9375 40.946 32.3906 39.6335 35.5781 39.6335L81.75 39.6335C84.9844 39.6335 86.3906 40.946 86.3906 44.2273L86.3906 90.3523C86.3906 93.6335 84.9844 94.946 81.75 94.946Z" fill="#ffffff" fill-opacity="0.85"/>
 </g>
</svg>
