<?xml version="1.0" encoding="UTF-8"?>
<!--Generator: Apple Native CoreSVG 232.5-->
<!DOCTYPE svg
PUBLIC "-//W3C//DTD SVG 1.1//EN"
       "http://www.w3.org/Graphics/SVG/1.1/DTD/svg11.dtd">
<svg version="1.1" xmlns="http://www.w3.org/2000/svg" xmlns:xlink="http://www.w3.org/1999/xlink" width="117.234" height="118.689">
 <g>
  <rect height="118.689" opacity="0" width="117.234" x="0" y="0"/>
  <path d="M2.90625 41.6491C4.5 41.6491 5.85938 40.3366 5.85938 38.7429L5.85938 31.7116C5.85938 21.7273 12.2812 14.696 22.4531 14.696L23.3438 14.696L23.3438 20.696C23.3438 24.071 25.9688 24.8679 28.5938 22.946L40.4062 14.321C42.4219 12.8679 42.375 11.1804 40.4062 9.72725L28.5938 1.05538C25.9688-0.913372 23.3438-0.116497 23.3438 3.35225L23.3438 9.2585L22.4062 9.2585C8.90625 9.2585 0 18.3054 0 31.7116L0 38.7429C0 40.3366 1.3125 41.6491 2.90625 41.6491Z" fill="#ffffff" fill-opacity="0.85"/>
  <path d="M81.8438 102.493C89.8594 102.493 93.8906 98.696 93.8906 90.4929L93.8906 44.1335C93.8906 35.9304 89.8594 32.0866 81.8438 32.0866L35.3906 32.0866C27.375 32.0866 23.3438 35.9304 23.3438 44.1335L23.3438 90.4929C23.3438 98.696 27.375 102.493 35.3906 102.493ZM81.7031 94.946L35.5312 94.946C32.3438 94.946 30.8906 93.6335 30.8906 90.3523L30.8906 44.2273C30.8906 40.946 32.3438 39.6335 35.5312 39.6335L81.7031 39.6335C84.9375 39.6335 86.3438 40.946 86.3438 44.2273L86.3438 90.3523C86.3438 93.6335 84.9375 94.946 81.7031 94.946Z" fill="#ffffff" fill-opacity="0.85"/>
 </g>
</svg>
