<svg width="92" height="18" viewBox="0 0 92 18" fill="none" xmlns="http://www.w3.org/2000/svg">
<path d="M81.1379 9.1256H78.5806V2.04053H81.1379V0H78.5527C78.0119 0.00181404 77.4939 0.21448 77.1115 0.591598C76.7292 0.968716 76.5136 1.47968 76.5117 2.013V9.15313C76.5145 9.68617 76.7304 10.1966 77.1125 10.5735C77.4947 10.9505 78.0122 11.1634 78.5527 11.1661H81.1379V9.1256Z" fill="white"/>
<path d="M83.2031 2.04053H85.7604V9.1256H83.2031V11.1661H85.7848C86.3256 11.1643 86.8436 10.9516 87.226 10.5745C87.6083 10.1974 87.824 9.68645 87.8258 9.15313V2.013C87.8231 1.47996 87.6071 0.969515 87.225 0.592591C86.8428 0.215667 86.3253 0.00271275 85.7848 0L83.2031 0V2.04053Z" fill="white"/>
<path d="M6.39228 15.2403C3.31514 15.2403 1.03695 13.6437 0.660156 11.0732H3.80009C4.22224 12.1055 5.46774 12.4496 6.3853 12.4496C7.62732 12.4496 8.5693 12.078 8.5693 11.3829C8.5693 10.6878 8.14366 10.4332 6.03293 10.1097C3.87684 9.80004 0.988105 9.21851 0.988105 6.55516C0.988105 4.6798 2.65576 2.73218 6.15504 2.73218C8.94609 2.73218 10.994 4.21526 11.3883 6.46225H8.17506C7.98667 5.90824 7.30635 5.46779 6.15504 5.46779C4.72463 5.46779 4.13502 5.97706 4.13502 6.41752C4.13502 7.04034 5.02815 7.25024 6.53183 7.48079C9.53919 7.96942 11.6988 8.61633 11.6988 11.2109C11.6988 13.5748 9.49035 15.2403 6.39228 15.2403Z" fill="white"/>
<path d="M18.9112 14.9409C15.3631 15.3126 13.4861 13.2032 13.4861 9.93768V6.46224H12.0312V3.75416H13.4861V0H16.5876V3.75416H18.9112V6.46224H16.5876V9.97897C16.5876 11.6444 17.3622 12.2707 18.9112 12.1778V14.9409Z" fill="white"/>
<path d="M39.8486 15.2196C38.5247 15.2252 37.2516 14.7173 36.304 13.8054V18H33.1641V3.03496H36.147V4.28406C36.6268 3.795 37.2023 3.40712 37.8386 3.14391C38.4748 2.8807 39.1587 2.74764 39.8486 2.7528C43.02 2.7528 45.6052 5.44024 45.6052 8.94664C45.6052 12.453 43.02 15.2024 39.8486 15.2024V15.2196ZM39.4056 5.5882C37.6891 5.5882 36.304 7.09537 36.304 8.94664C36.304 10.7979 37.6995 12.3533 39.4056 12.3533C41.1116 12.3533 42.5036 10.8943 42.5036 8.94664C42.5036 6.99902 41.1081 5.5882 39.4056 5.5882" fill="white"/>
<path d="M49.7187 0H46.6172V14.965H49.7187V0Z" fill="white"/>
<path d="M53.8723 10.1923C54.0276 10.8681 54.4127 11.4712 54.9636 11.9012C55.5145 12.3313 56.1981 12.5624 56.9006 12.5563C57.4142 12.5797 57.9246 12.4638 58.3761 12.2211C58.8275 11.9784 59.2029 11.6183 59.4614 11.1799H62.7618C62.0641 13.6127 59.9219 15.2541 56.9146 15.2541C55.2569 15.2332 53.6749 14.5667 52.5135 13.4C51.3521 12.2332 50.7056 10.6608 50.7149 9.02581C50.7149 5.58479 53.506 2.74594 56.9146 2.74594C60.4836 2.74594 63.4421 5.49876 62.9956 10.2061L53.8723 10.1923ZM59.9324 7.69069C59.7655 7.02782 59.3738 6.44116 58.8224 6.02806C58.2709 5.61497 57.5928 5.40027 56.9006 5.41962C56.2193 5.42148 55.5576 5.64508 55.0183 6.05571C54.4789 6.46635 54.092 7.04106 53.9177 7.69069H59.9324Z" fill="white"/>
<path d="M69.2761 7.48079C67.7724 7.25024 66.8793 7.04034 66.8793 6.41752C66.8793 5.97706 67.4654 5.46779 68.8993 5.46779C70.0506 5.46779 70.731 5.90824 70.9193 6.46225H74.136C73.7383 4.21526 71.6694 2.73218 68.9028 2.73218C65.414 2.73218 63.7359 4.6798 63.7359 6.55516C63.7359 9.21851 66.6246 9.80004 68.7842 10.1235C70.9438 10.447 71.3206 10.7257 71.3206 11.3967C71.3206 12.0677 70.3821 12.4634 69.1366 12.4634C68.2504 12.4634 67.0433 12.1193 66.6002 11.1661H63.4219C63.8405 13.6815 66.0978 15.2403 69.1366 15.2403C72.2381 15.2403 74.4465 13.5748 74.4465 11.2109C74.4465 8.61633 72.2835 7.96942 69.2796 7.48079" fill="white"/>
<path d="M25.0812 2.78034C26.4054 2.77514 27.679 3.28157 28.6293 4.19116V3.03498H31.7692V14.965H28.7689V13.7125C28.2901 14.1989 27.7168 14.585 27.0831 14.8475C26.4494 15.11 25.7685 15.2436 25.0812 15.2403C21.9098 15.2403 19.3281 12.5563 19.3281 9.04645C19.3281 5.5366 21.9098 2.78034 25.0812 2.78034ZM25.5278 12.3877C27.2408 12.3877 28.6293 10.884 28.6293 9.02924C28.6293 7.17453 27.2338 5.62607 25.5278 5.62607C23.8217 5.62607 22.4262 7.08506 22.4262 9.02924C22.4262 10.9734 23.8217 12.3877 25.5278 12.3877Z" fill="white"/>
<path d="M89.1862 0.887787H90.1666V1.20436H89.8456V2.04053H89.4968V1.20436H89.1758L89.1862 0.887787ZM91.6284 0.887787V2.04053H91.2795V1.42115L90.9586 1.81686L90.6725 1.42115V2.04053H90.3236V0.887787H90.6236L90.9725 1.35233L91.3214 0.887787H91.6284Z" fill="white"/>
</svg>
